<svg width="100" height="100" viewBox="0 0 100 100" fill="none" xmlns="http://www.w3.org/2000/svg">
<rect width="100" height="100" rx="15" fill="white"/>
<path d="M26.8438 79V19.3636H52.5852C57.0114 19.3636 60.8842 20.2372 64.2038 21.9844C67.5234 23.7315 70.1054 26.1873 71.9496 29.3516C73.7938 32.5159 74.7159 36.214 74.7159 40.446C74.7159 44.7169 73.7647 48.415 71.8622 51.5405C69.9792 54.666 67.3293 57.0732 63.9126 58.7621C60.5154 60.451 56.5455 61.2955 52.0028 61.2955H36.6278V48.7159H48.7415C50.6439 48.7159 52.2649 48.3859 53.6044 47.7259C54.9633 47.0464 56.0019 46.0855 56.7202 44.843C57.4579 43.6006 57.8267 42.1349 57.8267 40.446C57.8267 38.7377 57.4579 37.2817 56.7202 36.0781C56.0019 34.8551 54.9633 33.9233 53.6044 33.2827C52.2649 32.6226 50.6439 32.2926 48.7415 32.2926H43.0341V79H26.8438Z" fill="black"/>
</svg>
