<svg width="31" height="20" viewBox="0 0 31 20" fill="none" xmlns="http://www.w3.org/2000/svg">
<path d="M25.6873 7.89096C25.4313 7.80334 25.1836 7.72211 24.9457 7.64391C23.0576 7.02477 22.4048 6.75706 22.4048 5.70572C22.4048 4.79411 23.0523 4.15715 23.9793 4.15715C24.7399 4.15715 25.2652 4.47211 25.7926 5.24382C25.9979 5.54458 26.3971 5.64268 26.7184 5.47134L28.542 4.49944C28.7098 4.41011 28.835 4.25744 28.8898 4.07534C28.9447 3.89344 28.9248 3.69696 28.8344 3.52972C27.775 1.5682 26.1761 0.573821 24.082 0.573821C22.5018 0.573821 21.1631 1.07163 20.2102 2.01353C19.2656 2.94715 18.7664 4.24715 18.7664 5.77268C18.7664 8.97334 20.7947 10.2972 24.2962 11.5018C26.3005 12.1981 26.769 12.4672 26.769 13.5133C26.769 14.8065 25.6522 15.7452 24.1133 15.7452C24.067 15.7452 24.02 15.7444 23.9724 15.7428C22.3174 15.685 21.8081 14.8772 21.0401 13.0478C19.807 10.1132 18.3656 6.59696 18.2587 6.32944C18.2575 6.32649 18.2563 6.32334 18.2551 6.3203C16.6917 2.55506 13.583 0.39563 9.7261 0.39563C4.63876 0.39563 0.5 4.70477 0.5 10.0017C0.5 15.2968 4.63876 19.6044 9.726 19.6044C12.5086 19.6044 15.1126 18.3196 16.8704 16.0792C17.0298 15.8761 17.067 15.6027 16.968 15.3642L15.8689 12.7184C15.7617 12.4602 15.5137 12.2885 15.2346 12.2785C14.9541 12.2685 14.6961 12.4225 14.5707 12.6723C13.6205 14.5675 11.7641 15.7449 9.726 15.7449C6.71095 15.7449 4.258 13.1684 4.258 10.0017C4.258 6.83411 6.71095 4.25696 9.726 4.25696C11.9192 4.25696 13.926 5.6163 14.7195 7.63944C14.7217 7.64468 14.7238 7.65001 14.726 7.65525L17.4473 14.1297L17.761 14.8552C19.0763 18.0553 21.025 19.4887 24.0809 19.5025H24.0935C27.7457 19.5025 30.5 16.9597 30.5 13.5879C30.5 10.2071 28.6581 8.90144 25.6873 7.89096Z" fill="white"/>
</svg>
