<svg width="84" height="65" viewBox="0 0 84 65" fill="none" xmlns="http://www.w3.org/2000/svg">
<path d="M0.875 30V0.90909H13.4318C15.5909 0.90909 17.4801 1.33523 19.0994 2.1875C20.7188 3.03977 21.9782 4.23769 22.8778 5.78125C23.7775 7.32481 24.2273 9.12879 24.2273 11.1932C24.2273 13.2765 23.7633 15.0805 22.8352 16.6051C21.9167 18.1297 20.6241 19.304 18.9574 20.1278C17.3002 20.9517 15.3636 21.3636 13.1477 21.3636H5.64773V15.2273H11.5568C12.4848 15.2273 13.2756 15.0663 13.929 14.7443C14.5919 14.4129 15.0985 13.9441 15.4489 13.3381C15.8087 12.732 15.9886 12.017 15.9886 11.1932C15.9886 10.3598 15.8087 9.64962 15.4489 9.0625C15.0985 8.46591 14.5919 8.01136 13.929 7.69886C13.2756 7.37689 12.4848 7.21591 11.5568 7.21591H8.77273V30H0.875ZM55.3068 15.4545C55.3068 18.6932 54.6771 21.4252 53.4176 23.6506C52.1581 25.8665 50.4583 27.5473 48.3182 28.6932C46.178 29.8295 43.7917 30.3977 41.1591 30.3977C38.5076 30.3977 36.1117 29.8248 33.9716 28.679C31.8409 27.5237 30.1458 25.8381 28.8864 23.6222C27.6364 21.3968 27.0114 18.6742 27.0114 15.4545C27.0114 12.2159 27.6364 9.48864 28.8864 7.27273C30.1458 5.04735 31.8409 3.36648 33.9716 2.23011C36.1117 1.08428 38.5076 0.511363 41.1591 0.511363C43.7917 0.511363 46.178 1.08428 48.3182 2.23011C50.4583 3.36648 52.1581 5.04735 53.4176 7.27273C54.6771 9.48864 55.3068 12.2159 55.3068 15.4545ZM47.1818 15.4545C47.1818 13.7121 46.9498 12.2443 46.4858 11.0511C46.0312 9.84848 45.3542 8.93939 44.4545 8.32386C43.5644 7.69886 42.4659 7.38636 41.1591 7.38636C39.8523 7.38636 38.7491 7.69886 37.8494 8.32386C36.9593 8.93939 36.2822 9.84848 35.8182 11.0511C35.3636 12.2443 35.1364 13.7121 35.1364 15.4545C35.1364 17.197 35.3636 18.6695 35.8182 19.8722C36.2822 21.0653 36.9593 21.9744 37.8494 22.5994C38.7491 23.215 39.8523 23.5227 41.1591 23.5227C42.4659 23.5227 43.5644 23.215 44.4545 22.5994C45.3542 21.9744 46.0312 21.0653 46.4858 19.8722C46.9498 18.6695 47.1818 17.197 47.1818 15.4545ZM74.6428 10C74.567 9.05303 74.2119 8.31439 73.5774 7.78409C72.9524 7.25379 72.0007 6.98864 70.7223 6.98864C69.9079 6.98864 69.2403 7.08807 68.7195 7.28693C68.2081 7.47633 67.8293 7.73674 67.5831 8.06818C67.3369 8.39962 67.209 8.77841 67.1996 9.20455C67.1806 9.55492 67.2422 9.87216 67.3842 10.1562C67.5357 10.4309 67.7725 10.6818 68.0945 10.9091C68.4164 11.1269 68.8284 11.3258 69.3303 11.5057C69.8322 11.6856 70.4287 11.8466 71.12 11.9886L73.5064 12.5C75.1162 12.8409 76.4941 13.2907 77.6399 13.8494C78.7857 14.4081 79.7232 15.0663 80.4524 15.8239C81.1816 16.572 81.7166 17.4148 82.0575 18.3523C82.4079 19.2898 82.5878 20.3125 82.5973 21.4205C82.5878 23.3333 82.1096 24.9527 81.1626 26.2784C80.2157 27.6042 78.8615 28.6127 77.1001 29.304C75.3482 29.9953 73.2412 30.3409 70.7791 30.3409C68.2507 30.3409 66.0443 29.9669 64.1598 29.2188C62.2848 28.4706 60.8265 27.3201 59.7848 25.767C58.7526 24.2045 58.2318 22.2064 58.2223 19.7727H65.7223C65.7696 20.6629 65.9922 21.411 66.3899 22.017C66.7876 22.6231 67.3464 23.0824 68.0661 23.3949C68.7952 23.7074 69.6617 23.8636 70.6655 23.8636C71.5083 23.8636 72.2138 23.7595 72.782 23.5511C73.3501 23.3428 73.781 23.054 74.0746 22.6847C74.3681 22.3153 74.5196 21.8939 74.5291 21.4205C74.5196 20.9754 74.3729 20.5871 74.0888 20.2557C73.8142 19.9148 73.3596 19.6117 72.7251 19.3466C72.0907 19.072 71.2337 18.8163 70.1541 18.5795L67.2564 17.9545C64.6806 17.3958 62.6494 16.4631 61.1626 15.1562C59.6854 13.84 58.9515 12.0455 58.9609 9.77273C58.9515 7.92614 59.4439 6.31155 60.4382 4.92898C61.442 3.53693 62.8293 2.45265 64.6001 1.67614C66.3804 0.89962 68.4212 0.511363 70.7223 0.511363C73.0708 0.511363 75.102 0.904355 76.8161 1.69034C78.5301 2.47633 79.8511 3.58428 80.7791 5.0142C81.7166 6.43466 82.1901 8.09659 82.1996 10H74.6428ZM0.0795455 42.2727V35.9091H25.3636V42.2727H16.6136V65H8.82955V42.2727H0.0795455ZM31.1359 65V35.9091H52.1018V42.2727H39.0337V47.2727H51.0223V53.6364H39.0337V58.6364H52.045V65H31.1359ZM58.8187 65V35.9091H71.3756C73.5347 35.9091 75.4239 36.3021 77.0432 37.0881C78.6625 37.8741 79.922 39.0057 80.8216 40.483C81.7212 41.9602 82.171 43.7311 82.171 45.7955C82.171 47.8788 81.707 49.6354 80.779 51.0653C79.8604 52.4953 78.5678 53.5748 76.9011 54.304C75.2439 55.0331 73.3074 55.3977 71.0915 55.3977H63.5915V49.2614H69.5006C70.4286 49.2614 71.2193 49.1477 71.8727 48.9205C72.5356 48.6837 73.0422 48.3097 73.3926 47.7983C73.7525 47.2869 73.9324 46.6193 73.9324 45.7955C73.9324 44.9621 73.7525 44.285 73.3926 43.7642C73.0422 43.2339 72.5356 42.8456 71.8727 42.5994C71.2193 42.3437 70.4286 42.2159 69.5006 42.2159H66.7165V65H58.8187ZM75.8642 51.6477L83.1369 65H74.5574L67.4551 51.6477H75.8642Z" fill="black"/>
</svg>
