<svg width="90" height="28" viewBox="0 0 90 28" fill="none" xmlns="http://www.w3.org/2000/svg">
<g clip-path="url(#clip0_6_6)">
<path d="M13.5235 0.0445862C6.07736 0.0445862 0.040741 6.08103 0.040741 13.5272C0.040741 20.9737 6.07736 27.0097 13.5235 27.0097C20.9705 27.0097 27.0065 20.9737 27.0065 13.5272C27.0065 6.08151 20.9705 0.0452302 13.5234 0.0452302L13.5235 0.0445862ZM19.7067 19.4904C19.4652 19.8865 18.9467 20.012 18.5507 19.7689C15.3851 17.8353 11.3999 17.3974 6.70672 18.4696C6.25446 18.5727 5.80365 18.2893 5.70061 17.8369C5.59709 17.3845 5.87933 16.9337 6.33271 16.8306C11.4687 15.6573 15.8742 16.1625 19.4281 18.3344C19.8242 18.5775 19.9498 19.0943 19.7067 19.4904ZM21.3569 15.8192C21.0527 16.3138 20.4054 16.47 19.9111 16.1657C16.287 13.9381 10.7625 13.293 6.47584 14.5942C5.9199 14.7621 5.33272 14.4488 5.16399 13.8938C4.99655 13.3379 5.31002 12.7518 5.865 12.5828C10.7616 11.097 16.8489 11.8167 21.0108 14.3742C21.5051 14.6785 21.6612 15.3256 21.3569 15.8192ZM21.4986 11.9964C17.1532 9.41538 9.98375 9.17806 5.83489 10.4373C5.16866 10.6393 4.46412 10.2632 4.26222 9.59699C4.06032 8.93044 4.4361 8.22638 5.10281 8.02384C9.86542 6.57804 17.7827 6.85738 22.7857 9.82738C23.3862 10.183 23.5826 10.957 23.2268 11.5554C22.8726 12.1547 22.0966 12.3522 21.4993 11.9964H21.4986ZM36.723 12.491C34.3949 11.9359 33.9811 11.5462 33.9811 10.7275C33.9811 9.95409 34.7089 9.43357 35.7924 9.43357C36.8421 9.43357 37.8822 9.82883 38.9738 10.6425C39.006 10.6672 39.0479 10.677 39.0881 10.6706C39.13 10.6644 39.1654 10.6421 39.1896 10.6084L40.3262 9.00611C40.3729 8.9401 40.36 8.84914 40.2972 8.79874C38.998 7.75658 37.5361 7.2499 35.8262 7.2499C33.313 7.2499 31.5564 8.75833 31.5564 10.9166C31.5564 13.231 33.0715 14.0505 35.6894 14.683C37.916 15.1962 38.2928 15.626 38.2928 16.3943C38.2928 17.246 37.5328 17.7757 36.3092 17.7757C34.9504 17.7757 33.8411 17.3169 32.6013 16.2446C32.5708 16.2172 32.5289 16.206 32.4903 16.2076C32.4484 16.2108 32.4114 16.2301 32.3856 16.2607L31.1105 17.7773C31.0573 17.8417 31.0638 17.9351 31.125 17.9899C32.5675 19.2779 34.3418 19.9573 36.2577 19.9573C38.9658 19.9573 40.7159 18.4777 40.7159 16.1866C40.7207 14.2535 39.5631 13.1828 36.7278 12.4931L36.723 12.491ZM46.8436 10.1951C45.6699 10.1951 44.7071 10.6575 43.9117 11.605V10.5385C43.9117 10.4543 43.8441 10.3857 43.7604 10.3857H41.6754C41.5917 10.3857 41.5241 10.4543 41.5241 10.5385V22.3884C41.5241 22.4722 41.5917 22.5414 41.6754 22.5414H43.7604C43.8441 22.5414 43.9117 22.4722 43.9117 22.3884V18.6484C44.7071 19.5387 45.6699 19.975 46.8436 19.975C49.0252 19.975 51.2341 18.2958 51.2341 15.0855C51.2374 11.8747 49.0284 10.195 46.8452 10.195L46.8436 10.1951ZM48.8094 15.0855C48.8094 16.7196 47.8032 17.8611 46.3606 17.8611C44.9357 17.8611 43.8602 16.668 43.8602 15.0855C43.8602 13.5029 44.9357 12.3102 46.3606 12.3102C47.779 12.31 48.8094 13.4771 48.8094 15.0855ZM56.8934 10.1951C54.0839 10.1951 51.883 12.3583 51.883 15.1205C51.883 17.853 54.0694 19.9927 56.8595 19.9927C59.6787 19.9927 61.886 17.8369 61.886 15.0855C61.886 12.3435 59.6932 10.1954 56.8934 10.1954V10.1951ZM56.8934 17.8772C55.3993 17.8772 54.2722 16.6761 54.2722 15.0847C54.2722 13.4862 55.3606 12.3261 56.8595 12.3261C58.3633 12.3261 59.4968 13.5267 59.4968 15.1197C59.4968 16.7179 58.4019 17.8772 56.8934 17.8772ZM67.885 10.3857H65.5907V8.04059C65.5907 7.95654 65.5231 7.88796 65.4394 7.88796H63.3544C63.2707 7.88796 63.2014 7.95654 63.2014 8.04059V10.3857H62.2C62.1163 10.3857 62.0486 10.4543 62.0486 10.5385V12.33C62.0486 12.414 62.1163 12.4828 62.2 12.4828H63.2014V17.1188C63.2014 18.9913 64.1336 19.9412 65.9739 19.9412C66.7209 19.9412 67.3408 19.7866 67.9252 19.455C67.9735 19.4292 68.0025 19.3777 68.0025 19.323V17.6163C68.0025 17.5648 67.9751 17.5149 67.9301 17.4875C67.885 17.4586 67.8286 17.4569 67.7819 17.4811C67.381 17.6823 66.993 17.7757 66.5583 17.7757C65.8902 17.7757 65.5907 17.4714 65.5907 16.792V12.4836H67.885C67.9687 12.4836 68.0363 12.415 68.0363 12.3308V10.5395C68.0395 10.4553 67.9719 10.3867 67.8866 10.3867L67.885 10.3857ZM75.8771 10.3949V10.1069C75.8771 9.25953 76.2024 8.88166 76.9301 8.88166C77.3648 8.88166 77.7142 8.96796 78.1054 9.09837C78.1537 9.1135 78.2036 9.10594 78.2422 9.07712C78.2825 9.0483 78.305 9.00209 78.305 8.95314V7.19661C78.305 7.12948 78.2632 7.07007 78.1972 7.05026C77.785 6.92742 77.2569 6.80135 76.4648 6.80135C74.5408 6.80135 73.5217 7.88554 73.5217 9.93558V10.3767H72.5202C72.4365 10.3767 72.3673 10.4453 72.3673 10.5294V12.33C72.3673 12.414 72.4365 12.4828 72.5202 12.4828H73.5217V19.6321C73.5217 19.7174 73.5909 19.785 73.6746 19.785H75.758C75.8433 19.785 75.9109 19.7174 75.9109 19.6321V12.4833H77.8575L80.8392 19.6321C80.5011 20.3823 80.1678 20.5321 79.7138 20.5321C79.3467 20.5321 78.9587 20.4226 78.5643 20.2052C78.5272 20.1859 78.4821 20.1827 78.4435 20.194C78.4033 20.2085 78.3694 20.2374 78.3533 20.2761L77.6465 21.8265C77.6127 21.9006 77.6417 21.9859 77.7126 22.0246C78.4499 22.4239 79.1149 22.5945 79.9376 22.5945C81.4768 22.5945 82.3285 21.8764 83.0771 19.9476L86.6933 10.6036C86.7126 10.5566 86.7061 10.5034 86.6772 10.4617C86.6498 10.4204 86.6031 10.3954 86.5532 10.3954H84.3829C84.3169 10.3954 84.2589 10.4368 84.238 10.4978L82.0145 16.8467L79.5802 10.4936C79.5576 10.4345 79.5013 10.3954 79.4385 10.3954H75.8771V10.3949ZM71.2435 10.3857H69.1585C69.0748 10.3857 69.0056 10.4543 69.0056 10.5385V19.6321C69.0056 19.7174 69.0748 19.785 69.1585 19.785H71.2435C71.3272 19.785 71.3964 19.7174 71.3964 19.6321V10.5392C71.3964 10.455 71.3288 10.3864 71.2435 10.3864V10.3857ZM70.2131 6.24493C69.3871 6.24493 68.7174 6.91341 68.7174 7.73919C68.7174 8.56545 69.3871 9.23474 70.2131 9.23474C71.039 9.23474 71.7072 8.56545 71.7072 7.73919C71.7072 6.91357 71.0374 6.24493 70.2131 6.24493ZM88.4739 13.3097C87.6496 13.3097 87.0072 12.6472 87.0072 11.8426C87.0072 11.0381 87.6577 10.368 88.482 10.368C89.3063 10.368 89.9487 11.0304 89.9487 11.8343C89.9487 12.6388 89.2983 13.3097 88.4739 13.3097ZM88.482 10.5139C87.7301 10.5139 87.1618 11.1112 87.1618 11.8426C87.1618 12.5738 87.7269 13.163 88.4739 13.163C89.2258 13.163 89.7942 12.5662 89.7942 11.8343C89.7942 11.1032 89.229 10.5139 88.482 10.5139ZM88.8072 11.9851L89.2226 12.566H88.8716L88.4981 12.0331H88.1777V12.566H87.8847V11.0262H88.5705C88.9296 11.0262 89.1646 11.2093 89.1646 11.5174C89.1663 11.7699 89.0197 11.9241 88.8088 11.9851H88.8072ZM88.5593 11.2904H88.1777V11.7774H88.5593C88.7493 11.7774 88.8636 11.6842 88.8636 11.5337C88.8636 11.3753 88.7493 11.2904 88.5593 11.2904Z" fill="#171914"/>
</g>
<defs>
<clipPath id="clip0_6_6">
<rect width="90" height="27.0482" fill="white"/>
</clipPath>
</defs>
</svg>
