<svg width="30" height="30" viewBox="0 0 30 30" fill="none" xmlns="http://www.w3.org/2000/svg">
<path d="M14.9999 0.000366211C6.71587 0.000366211 0 6.71604 0 15.0001C0 23.2845 6.71587 29.9996 14.9999 29.9996C23.2849 29.9996 30 23.2845 30 15.0001C30 6.71657 23.285 0.000366211 14.9999 0.000366211ZM21.8788 21.6342C21.6101 22.0749 21.0333 22.2146 20.5927 21.9441C17.0709 19.7929 12.6373 19.3057 7.41604 20.4986C6.91289 20.6133 6.41136 20.298 6.29673 19.7947C6.18156 19.2914 6.49555 18.7898 6.99995 18.6752C12.7138 17.3698 17.615 17.9319 21.5689 20.3482C22.0095 20.6186 22.1492 21.1936 21.8788 21.6342ZM23.7147 17.55C23.3762 18.1002 22.6561 18.274 22.1063 17.9355C18.0743 15.4572 11.9282 14.7395 7.15918 16.1871C6.54069 16.3739 5.88744 16.0253 5.69973 15.4079C5.51344 14.7894 5.86219 14.1374 6.47961 13.9494C11.9271 12.2965 18.6994 13.0971 23.3296 15.9424C23.8795 16.2809 24.0533 17.0008 23.7147 17.55ZM23.8724 13.297C19.038 10.4256 11.0618 10.1616 6.44611 11.5624C5.70492 11.7872 4.9211 11.3688 4.69648 10.6276C4.47187 9.88607 4.88993 9.10279 5.63166 8.87745C10.9302 7.26898 19.7383 7.57974 25.3042 10.8839C25.9723 11.2796 26.1909 12.1406 25.795 12.8064C25.401 13.4731 24.5369 13.6929 23.8724 13.297Z" fill="white"/>
</svg>
